<?xml version="1.0" encoding="UTF-8"?>
<svg id="Layer_1" data-name="Layer 1" xmlns="http://www.w3.org/2000/svg" width="352.78" height="310" viewBox="0 0 352.78 310">
  <path d="M281.3,52.89c.41-3.61.63-8.14.63-13.63-1.44-5.1-6.27-9.02-14.44-11.73-5.48-3.11-8.21-7.94-8.21-14.44,1.8-8.71,12.32-13.09,31.59-13.09h36.37c17.01,0,25.54,4.38,25.54,13.09-1.15,6.27-5.3,11.08-12.45,14.44-8.91,2.35-14.89,6.27-17.96,11.73-.43.79-2.21,5.32-5.32,13.63l-39.98,227.51c-2.12,12.34-5.01,20.37-8.66,24.1-3.61,3.66-11.46,5.51-23.55,5.51-10.18,0-16.83-2.03-19.94-6.05-2.35-3-6.77-10.97-13.27-23.92-6.5-12.93-9.9-19.67-10.2-20.22L102.52,79.06l-31.68,176.07c0,6.39.2,10.97.63,13.72.47,2.48,1.44,4.4,2.89,5.78,1.44,1.33,3.11,2.44,5.05,3.34,1.99.86,3.93,1.67,5.87,2.44,5.46,2.3,8.21,6.9,8.21,13.81-1.33,8.73-11.62,13.09-30.86,13.09H26.17c-17.46,0-26.17-4.35-26.17-13.09,1.33-6.61,5.69-11.21,13.09-13.81,9.61-3.29,15.61-7.15,17.96-11.55,1.26-2.64,2.82-7.22,4.69-13.72l33.12-185.64c1.74-10.94,2.62-18.28,2.62-22.02,0-9.02-4.58-15-13.72-17.96-4.94-1.99-8.35-3.79-10.2-5.41-1.8-1.62-2.71-4.83-2.71-9.66,1.85-9.61,10.74-14.44,26.62-14.44h57.13c8.24,0,13.67.52,16.33,1.53,2.71,1.04,6.18,4.22,10.47,9.57,9.97,13.31,29.69,46.97,59.11,100.99l42.6,79.78,24.19-138.98Z"/>
</svg>
